<?xml version="1.0" encoding="UTF-8" standalone="no"?>
<!DOCTYPE svg PUBLIC "-//W3C//DTD SVG 1.1//EN" "http://www.w3.org/Graphics/SVG/1.1/DTD/svg11.dtd">
<svg width="100%" height="100%" viewBox="0 0 192 192" version="1.1" xmlns="http://www.w3.org/2000/svg" xmlns:xlink="http://www.w3.org/1999/xlink" xml:space="preserve" xmlns:serif="http://www.serif.com/" style="fill-rule:evenodd;clip-rule:evenodd;stroke-linejoin:round;stroke-miterlimit:2;">
    <rect id="Artboard1" x="0" y="0" width="192" height="192" style="fill:none;"/>
    <g id="Artboard11" serif:id="Artboard1">
        <g transform="matrix(0.217752,0,0,0.217752,-18.6825,-271.039)">
            <path d="M967.534,1435.57C967.534,1390.66 931.073,1354.2 886.162,1354.2L167.169,1354.2C122.259,1354.2 85.797,1390.66 85.797,1435.57L85.797,1935.6C85.797,1980.51 122.259,2016.97 167.169,2016.97L886.162,2016.97C931.073,2016.97 967.534,1980.51 967.534,1935.6L967.534,1435.57ZM891.078,1429.16L161.753,1429.16L161.753,1939.96L891.078,1939.96L891.078,1429.16Z" style="fill:rgb(52,59,143);"/>
            <g>
                <g transform="matrix(1.15417,0,0,1.15726,-61.1055,-264.915)">
                    <circle cx="414.943" cy="1605.38" r="79.176" style="fill:rgb(52,59,143);"/>
                </g>
                <g transform="matrix(1.00553,0,0,1.05307,-4.5324,-79.6718)">
                    <rect x="602.178" y="1501.31" width="217.642" height="34.719" style="fill:rgb(52,59,143);"/>
                </g>
                <g transform="matrix(1.00553,0,0,1.05307,-4.5324,-6.32498)">
                    <rect x="602.178" y="1501.31" width="217.642" height="34.719" style="fill:rgb(52,59,143);"/>
                </g>
                <g transform="matrix(0.668994,0,0,1.05307,198.121,67.0218)">
                    <rect x="602.178" y="1501.31" width="217.642" height="34.719" style="fill:rgb(52,59,143);"/>
                </g>
                <g transform="matrix(0.994667,0,0,0.475354,-8.24325,887.29)">
                    <path d="M612.921,1956.9C612.921,1855.5 530.721,1773.3 429.321,1773.3C327.922,1773.3 245.722,1855.5 245.722,1956.9L244.984,2060.72L612.484,2062.47L612.921,1956.9Z" style="fill:rgb(52,59,143);"/>
                </g>
            </g>
        </g>
    </g>
</svg>
